# xmcd CD database file
# Copyright (C) 1993-1996 Ti Kan
#
# Track frame offsets:
#	150
#	7280
#	17075
#	28985
#	47107
#	58195
#	72662
#	92095
#	101962
#	118002
#	132312
#	145200
#	154820
#	170095
#
# Disc length: 2508 seconds
#
# Revision: 1
# Processed by: cddbd v1.4b41PL1 Copyright (c) Steve Scherf et al.
# Submitted via: CDValet v3.01 - Copyright (c) 1997 Greg Leichner
#
DISCID=d809ca0e
DTITLE=Sons of the San Joaquin - Great American Cowboy
DYEAR=1900
DGENRE=
TTITLE0=When the Prairie Sun Climbs Out of the Hay
TTITLE1=The Timber Trail
TTITLE2=Hello Way Up Yonder
TTITLE3=The Gift
TTITLE4=The Everlasting Hills of Oklahoma
TTITLE5=Along the Santa Fe Trail
TTITLE6=Silver Spurs
TTITLE7=A Cowboy Has to Sing
TTITLE8=Somethin' That a Cowboy Knows
TTITLE9=Moonlight on the Trail
TTITLE10=Yippy-Yi, Yippy-Yo
TTITLE11=Song of the Rover
TTITLE12=Cool Water
TTITLE13=Great American Cowboy
EXTD=
EXTT0=
EXTT1=
EXTT2=
EXTT3=
EXTT4=
EXTT5=
EXTT6=
EXTT7=
EXTT8=
EXTT9=
EXTT10=
EXTT11=
EXTT12=
EXTT13=
PLAYORDER=
